<?xml version="1.0" encoding="utf-8"?>
<!-- Generator: Adobe Illustrator 27.0.0, SVG Export Plug-In . SVG Version: 6.00 Build 0)  -->
<svg version="1.1" id="Layer_1" xmlns="http://www.w3.org/2000/svg" xmlns:xlink="http://www.w3.org/1999/xlink" x="0px" y="0px"
	 viewBox="0 0 911.96 808.57" style="enable-background:new 0 0 911.96 808.57;" xml:space="preserve">
<style type="text/css">
	.st0{fill:#1E0A52;stroke:#1E0A52;stroke-width:80;stroke-miterlimit:10;}
	.st1{fill:#FCFC03;}
	.st2{fill:#FB01E0;}
	.st3{fill:#FAB333;}
</style>
<circle class="st0" cx="404.91" cy="405.13" r="361.2"/>
<g>
	<path class="st0" d="M738.54,487.18c5.17-0.52,12.27,9.14,15.3-1.08c7.79-26.29,10.1-53.57,9.71-80.83"/>
	<path class="st0" d="M732.18,550.59c6.2-13.44,1.75-16.54-10.77-15.51"/>
	<path class="st0" d="M755.65,533.83c82.49,0.36,120.52-40.72,111.62-126.91c-0.77-6.71-6.94-4.39-11.48-4.39
		c-15.69,0.94-53.13,2.62-68.75,4.53c-4.11,0.5-9.71,2.02-8.99,7.03c2.65,18.36,5.21,36.81,13.33,53.89
		c16.3,34.3,7.77,47.35-30.96,47.87"/>
	<path class="st0" d="M777.77,145.8c10.29,14.62,14.68,29.54,3.65,45.79c-3.25,4.78-5.86,9.55-7.91,14.3
		c-10.03,23.31-5.87,46.26,9.91,69.02c0.88,1.26,1.74,2.53,2.58,3.8c11.65,17.53,19.9,35.75,15.63,58.62
		c-3.26,17.47,2.58,34.53,10.61,50.31c1.14,2.24,1.64,3.48,4.31,3.8c1.76,0.24,4.25,0.11,3.7-1.15c-6.84-23.5-9.03-55.64-5.19-68.98
		c2.03-8.48-1.91-25.19-7.72-36.02c-1.1-2.06-2.3-4.12-3.56-6.2c-11.45-18.93-27.63-38.6-20.15-59.8c0.75-2.14,1.75-4.29,3.01-6.46
		c19.33-33.14,17.83-60.27-4.61-88.9c-3.44-4.39-5.08-7.33-6.12-10.01c-1.13-2.48-1.65-5.61-2.95-4.89
		c-7.74,7.18-5.47,15.59-2.44,23.71C772.27,137.36,774.91,141.75,777.77,145.8z"/>
	<path class="st0" d="M805.4,258.07c1.93,5.66,4.83,11.19,8.97,16.53c18.37,23.65,37.15,43.67,19.35,79.24
		c-2.21,4.17-6.96,8.14-5.56,11.82c0.61,1.61,5.54,5.27,8.86,5.36c5.74,0.16-0.09-4.17,1.48-6.52c17.68-26.6,20.95-64.06-7.22-92.81
		c-6.65-6.79-11.62-14.22-14.3-22.32c-3.36-10.17-3.13-21.4,1.9-33.76c7.68-18.87,18.26-38.76,0.03-58.04
		c-1.48-1.56-3.16-2.93-4.82-4.32c-0.53-0.44-1.31,0.05-1.14,0.71c0.42,1.66,0.84,3.33,1.17,5.01c1.98,10.18,2.9,20.32-0.7,30.42
		C805.35,212.14,797.93,236.1,805.4,258.07z"/>
</g>
<g>
	<path class="st1" d="M738.54,487.18c-35.86-8.69-72.22-15.39-109-16.15c-9-0.19-18.91-0.05-28.38,0.29
		c-1.96,0.07-5.91,1.09-5.66-3.87c0.2-4.01,1.27-7.02,5.37-7.71c15.24-2.59,17.47-14.13,19.58-26.62
		c2.05-12.16-4.28-16.33-14.01-21.34c-21.9-11.28-42.06-26.09-64.32-36.48c-19.74-9.21-2.34-21.5-4.88-32.07
		c-3.1-12.9-0.65-26.63-20.71-24.9c-12.68,1.1-10.68-7.94-7.24-14.62c6.59-12.8,11.12-25.41,8.86-40.29
		c-5.77-37.88,12.36-74.32,7.34-112.3c-1.49-11.29,3.08-26.22-11.02-30.78c-17.42-5.64-26.13,7.99-32.64,21.38
		c-13.76,28.32-27.01,56.89-40.33,85.42c-5.56,11.91-14.99,12.97-26.04,9.81c-5.38-1.54-10.98-5.38-15.99-4.67
		c-32.72,4.61-29.38-24.07-37.11-40.85c-16.3-35.39-17.4-77.29-45.77-107.59c-2.96-3.16-7.3-5.03-11-7.5
		c3.15-1.39,6.18-3.23,9.47-4.09c75.97-19.92,150.25-15.29,223.16,14.38c77.76,31.65,135.29,85.9,174.5,158.88
		C753.83,322,756.99,403.72,738.54,487.18z"/>
	<path class="st1" d="M273.38,85.88c-22.61,51.46-33.97,104.97-35.94,161.46c-0.93,26.73-7.71,52.11,15.06,73.33
		c1.87,1.74-0.38,9.15-2.15,13.31c-9.61,22.59-18,46-30.62,66.81c-3.7,6.1-19.81,5.14-30.34,6.55c-38.93,5.19-56.95,34.58-45.4,73.2
		c0.4,1.32-8.47,6.1-13.46,8.23c-17.7,7.53-35.59,14.61-53.41,21.86c-12.1-45.72-18.68-92.27-14.97-139.43
		c4.92-62.49,24.25-120.05,61.99-171.27C162.99,147.2,212.47,109.29,273.38,85.88z"/>
	<path class="st2" d="M450.37,291.06c-7.26-3.24,8.44,20.1-9.13,5c-3.35-2.88-8.57-3.12-11.37,1.63c-3.06,5.2,3.28,4.37,5.04,6.48
		c2.25,2.71,5.21,4.82,7.86,7.19c-3.61,0.49-7.22,1.4-10.83,1.4c-13.37,0.02-26.34,2.08-30.97,16.59
		c-8.31,26.03-31.75,23.39-51.22,29.56c-40.29,12.76-80.16,26.83-120.2,40.34c-1.19,0.4-2.45,0.62-3.68,0.93
		c0.31-1.2,0.44-2.48,0.95-3.58c8.72-18.47,15.85-37.97,26.71-55.09c11.54-18.2-2.86-27.33-8.95-40.36
		c-13.21-28.29,2.52-56.86,1.13-85.45c-2.06-42.21,14.34-80.02,29.43-118.05c4.5-11.35,14.74-13.12,25.06-13.58
		c10.09-0.45,18.55,4.93,21.94,13.58c10.36,26.41,21.98,52.78,28.07,80.27c6.14,27.76-2.54,54.07-20.63,77.2
		c-8.4,10.75-20.41,24.88,4.48,32.37c0.72,0.22,1.15,1.45,1.64,2.25c0.02,0.04-0.83,0.8-0.95,0.72c-9.54-6.06-16.14,7.78-21.81,5.2
		c-11.21-5.11-20.81-14.14-16.52-29.38c2.76-9.81-0.92-17.55-5.91-26.06c-3.45-5.87-2.43-14.36-3.42-21.68
		c2.77,0.95,5.5,2.01,8.33,2.74c0.49,0.13,2.05-1.49,1.92-1.76c-1.39-3.04-3.11-5.92-4.55-8.94c-1.29-2.72-2.34-5.55-3.5-8.34
		c2.41-0.18,4.81-0.41,7.22-0.54c22.17-1.22,17.09-16.45,13.25-28.58c-6.66-20.99-6.58-42.53-8.39-63.97
		c-0.12-1.39-0.6-2.75-0.91-4.12c-1.15,0.9-2.76,1.55-3.37,2.72c-12.17,23.35-32.28,45.16-32.45,71.44
		c-0.24,35.6-14.45,69.27-10.54,104.88c1.74,15.82,19.55,24.05,17.8,42.56c-1.44,15.23-2.93,30.21-6.72,45
		c-0.54,2.09-0.27,4.4-0.37,6.6c2.06-0.22,4.14-0.3,6.16-0.7c22.77-4.53,27.66-23.52,37.02-41.15
		c12.65-23.81,30.26-46.03,46.98-66.28c9.84-11.92,23.59-44.71,52.76-29.67C427.45,250.63,446.64,263.64,450.37,291.06z"/>
	<path class="st2" d="M143.58,465.59c5.49-15.52,10.61-30.05,15.85-44.53c0.14-0.38,2.13-0.67,2.39-0.33
		c34.83,44.12,83.36,69.35,131.95,93.76c79.6,39.99,135.07,102.68,175.52,180.33c0.72,1.37,0.74,3.11,1.08,4.68
		c-1.01-1.02-2-2.07-3.04-3.06c-46.36-44.46-101.36-70.37-163.54-87.4c-33.69-9.23-59.83-39.56-87.8-62.54
		c-24.46-20.09-47.2-41.81-65.78-67.55C147.35,474.98,145.76,470.07,143.58,465.59z"/>
	<path class="st2" d="M178.16,641.84c26.47,37.68,44.97-0.91,63.01-9.65c20.97-10.16,26.8-7.97,34.88,12.61
		c6.85,17.43,20.16,32.29,30.33,48.46c11.6,18.45,18.17,7.94,25.72-3.67c5.19-7.98,12.12-14.81,17.84-22.47
		c5.32-7.11,10.87-2.36,14.3,0.64c29.51,25.8,60.14,50.53,83.42,82.62c0.65,0.89,1.18,1.86,1.77,2.8c-1.21,0.3-2.4,0.76-3.63,0.87
		c-97.97,8.82-187.64-13.54-266.41-73.33c-45.66-34.66-80.06-79.01-103.66-131.44c-1.38-3.07-1.88-6.54-2.79-9.83
		c3.16,1.85,6.81,3.19,9.38,5.65c4.84,4.64,9.05,9.92,13.53,14.94c16.47,28.52,33.97,56.18,57.11,80.08
		C161.87,649.32,168.18,662.56,178.16,641.84z"/>
	<path class="st2" d="M273.38,85.88c-60.91,23.41-110.39,61.32-149.24,114.04C86.4,251.14,67.07,308.7,62.15,371.2
		c-3.71,47.16,2.87,93.72,14.97,139.43c-9.02,5.48-13.64,3.4-16.33-7.35c-33.71-134.91-9.18-255.34,91.64-354.75
		c104.48-103,271.74-131.18,403.73-66.96c134.05,65.23,205.26,173.04,207.4,323.69c0.39,27.26-1.92,54.54-9.71,80.83
		c-3.03,10.22-10.13,0.56-15.3,1.08c18.45-83.46,15.29-165.18-25.83-241.7c-39.21-72.97-96.74-127.23-174.5-158.88
		c-72.91-29.67-147.19-34.3-223.16-14.38c-3.29,0.86-6.32,2.7-9.47,4.09C294.85,79.51,284.12,82.7,273.38,85.88z"/>
	<path class="st2" d="M477.84,349.18c3.04,27.33-11.13,36.94-25.49,46.68c-3.19,2.16-5.32,5.95-7.76,9.12
		c-5.47,7.13-8.01,14.73-21.76,8.68c-8.06-3.55-16.88,12.09-22.18,20.77c-4.59,7.51-14.83,15.38-7.84,27.02
		c0.2,0.33-0.55,1.4-1.05,1.94c-1.74,1.88-14.11-10.47-6.1,5.6c8.29,16.65-9.54,13.85-17.65,18.27
		c-24.1,13.17-45.04,12.32-62.27-11.67c-7.28-10.13,6.37-16.63,3.31-25.53c-7.79-22.63-31.51-19.89-47.73-28.95
		c-4.44-2.48-3.73-2.25-2.64-6.1c6.95-24.49,28.1-28.55,48.19-34.07c22.74-6.25,45.57-12.17,68.39-18.14
		c1.42-0.37,3.04,0.01,4.56,0.04c-1.1,0.94-2.22,1.86-3.29,2.83c-17.38,15.79-25.31,39.86-45.74,52.82
		c-7.53,4.78-15.22,11.1-25.55,7.58c-0.71-0.24-2.23,0.65-2.74,1.43c-0.49,0.74-0.44,2.83-0.13,2.94c1.59,0.58,3.34,0.98,5.03,0.96
		c36.57-0.33,48.19-30.85,66.47-53.92c6.32-7.98,11.7-28.01,27.96-5.49c18.84,26.1,44.4,22,59.19-6.67
		c2.42-4.69,5.53-9.07,8.71-13.3c1.91-2.54,4.58-4.5,6.92-6.72C477.73,348.81,478.82,352.33,477.84,349.18z M294.17,403.36
		c0.71,3.01-2.33,11.2,5.11,11.06c11.69-0.21,17.92-8.84,19.1-19.9c0.47-4.39-0.78-10.39-8-10.03
		C299.52,385.02,293.27,390,294.17,403.36z"/>
	<path class="st1" d="M645.56,646.68c-8.71-8.13-3.86-19.06-5.16-28.49c-2.86-20.83-21.16-11.93-31.41-18.09
		c-5.6-3.36-12.38-4.75-18.63-7.03c6.93-1.92,13.81-4.07,20.81-5.67c4.12-0.94,8.54-1.32,9.63-6.19c1.07-4.76-2.29-6.85-5.85-9.65
		c-21.39-16.84-42.33-34.24-63.49-51.36c-2.67-2.16-5.78-3.8-8.68-5.68c3.39-1.47,6.75-3.04,10.19-4.38
		c9.99-3.89,18.01-9.36,26-17.37c5.84-5.85,20.4-3.45,30.93,0.3c3.59,1.28,7.39,1.96,11.1,2.92c-0.08,0.08-0.25,0.22-0.24,0.23
		c2.26,2.84,4.01,7.35,6.89,8.25c21.65,6.76,43.62,12.5,65.28,19.22c9.73,3.02,18.99,7.55,28.47,11.39
		c-0.78,1.82-1.6,3.63-2.32,5.47C702.86,581.66,680.27,618.36,645.56,646.68z"/>
	<path class="st2" d="M645.56,646.68c34.71-28.32,57.3-65.02,73.53-106.13c0.73-1.84,1.55-3.64,2.32-5.47
		c12.52-1.02,16.97,2.07,10.77,15.51c-34.36,74.44-88.7,129.37-161.29,166.58c-16.53,8.47-33.82,15.47-50.77,23.12
		c-0.85,0.38-1.82,0.48-2.73,0.72c0.19-1.4,0.1-2.92,0.63-4.18c19.42-46.01,38.33-92.27,59.07-137.68
		c2.82-6.17,13.45,1.84,20.49,2.97c9.14,1.47,18.03,4.51,27.01,6.94c20.9,5.65,7.2,23.87,12.68,35.14c0.99,2.04,1.24,4.44,1.84,6.68
		C641.26,649.47,643.41,648.08,645.56,646.68z"/>
	<path class="st2" d="M755.65,533.83c-23.62,2.26-43.5-10.8-65.27-16.11c-0.58-0.14-1.25-4.07-0.44-5.02
		c2.69-3.15,0.33-11.1,8.15-9.36c20.69,4.6,40.63,12.79,62.32,12.5c38.73-0.51,47.26-13.57,30.96-47.87
		c-8.12-17.08-10.68-35.53-13.33-53.89c-0.72-5.01,4.87-6.53,8.99-7.03c15.62-1.9,53.06-3.59,68.75-4.53
		c4.55,0,10.71-2.32,11.48,4.39C876.17,493.12,838.14,534.19,755.65,533.83z"/>
	<path class="st2" d="M519.92,163.5c0.54,23.48-1.39,46.82-8.44,69.26c-3.6,11.46-1.63,22.18,1.32,32.7
		c3.37,12.02-6.02,20.81-6.08,31.71c0,0.24-0.6,0.47-0.92,0.7c-0.43-0.99-1.24-1.99-1.23-2.98c0.11-13.5-4.2-27.38-7.66-39.04
		c-5.13-17.31,0.94-33.8-3.81-50c-0.59-2.01,0.6-4.55,0.97-6.84c1.05,2.18,2.94,4.34,3.02,6.56c0.43,12.35,0.39,24.72,0.6,37.08
		c0.05,3.17,0.43,6.34,0.67,9.51c0.72-2.48,1.79-4.91,2.1-7.44c3.51-29.4,12.56-58.14,10.71-88.15c-0.15-2.43-3.15-6.89-3.9-6.7
		c-3.12,0.78-7.91,2.47-8.48,4.73c-7.84,31.52-28.2,60.3-20.84,95.25c1.1,5.22-3.79,1.63-4.97,1.13c-9.74-4.1-19.31-8.6-28.89-13.06
		c-0.56-0.26-1.27-1.6-1.09-1.87c20.57-29.64,29.33-64.94,46.29-96.27c4.48-8.28,10.82-18.74,21.86-15.25
		c10.35,3.27,7.76,15.24,8.68,24.04C520.34,153.48,519.92,158.51,519.92,163.5z"/>
	<path class="st3" d="M783.66,219.29c0.75-2.14,1.75-4.29,3.01-6.46c19.33-33.14,17.83-60.27-4.61-88.9
		c-3.44-4.39-5.08-7.33-6.12-10.01c-1.13-2.48-1.65-5.61-2.95-4.89c-7.74,7.18-5.47,15.59-2.44,23.71
		c1.72,4.62,4.37,9.01,7.22,13.06c10.29,14.62,14.68,29.54,3.65,45.79c-3.25,4.78-5.86,9.55-7.91,14.3
		C774.05,211.5,778.4,215.68,783.66,219.29z"/>
	<path class="st1" d="M783.66,219.29c-5.26-3.6-9.61-7.79-10.15-13.4c-10.03,23.31-5.87,46.26,9.91,69.02
		c0.88,1.26,1.74,2.53,2.58,3.8c5.94,0.26,11.87-1.09,17.81,0.38C792.36,260.16,776.17,240.48,783.66,219.29z"/>
	<path class="st1" d="M820.26,390.29c-6.84-23.5-9.03-55.64-5.19-68.98c2.03-8.48-1.91-25.19-7.72-36.02
		c-1.1-2.06-3.62-6.44-4.97-8.5c-5.94-1.47-16.65-19.96-16.43,1.85c11.65,17.53,19.94,35.82,15.68,58.69
		c-3.26,17.47,2.58,34.53,10.61,50.31c1.14,2.24,1.64,3.48,4.31,3.8C818.32,391.68,820.81,391.55,820.26,390.29z"/>
	<path class="st1" d="M258.62,460.79c12.91,5.9,25.54,16.25,41.86,17.5c1.59,0.12,2.84,4.69,4.24,7.19
		c-4.27,2.21-8.54,4.4-12.81,6.62c-2.05,1.07-4.09,2.17-6.14,3.25c2.44,0.26,5.66,1.66,7.2,0.61c12.99-8.95,23.45-5.24,35.32,3.59
		c12,8.93,25.03,1.14,35.47-4.91c18.19-10.54,29.32-5.19,37.66,12c1.21,2.5-5.46,5.9-25.63,12.7c-11.81,3.98-23.66,7.83-35.58,11.47
		c-10.63,3.25-16.12-6.37-23.74-10.3c-22.59-11.66-44.81-24.03-67.07-36.32c-2.89-1.6-5.15-4.34-7.71-6.54
		C246.74,472.2,246.72,462.01,258.62,460.79z"/>
	<path class="st2" d="M575.91,582.37c-6.9,5.39-13.32,10.2-19.51,15.29c-16,13.17-31.88,26.48-47.84,39.7
		c-1.1,0.91-2.47,1.49-3.71,2.23c0.07-1.37-0.03-2.78,0.24-4.12c6.49-31.28,12.46-62.69,20.06-93.7c1.39-5.67,6.99,0.8,9.37,2.88
		C548.44,556.87,561.95,569.56,575.91,582.37z"/>
	<path class="st1" d="M838.5,364.51c17.68-26.6,20.95-64.06-7.22-92.81c-6.65-6.79-11.62-14.22-14.3-22.32
		c-4.37,2.01-8.54,4.64-11.58,8.69c1.93,5.66,4.83,11.19,8.97,16.53c18.37,23.65,37.15,43.67,19.35,79.24
		c-2.21,4.17-6.96,8.14-5.56,11.82c0.61,1.61,5.54,5.27,8.86,5.36C842.77,371.19,836.94,366.86,838.5,364.51z"/>
	<path class="st3" d="M816.99,249.38c-3.36-10.17-3.13-21.4,1.9-33.76c7.68-18.87,18.26-38.76,0.03-58.04
		c-1.48-1.56-3.16-2.93-4.82-4.32c-0.53-0.44-1.31,0.05-1.14,0.71c0.42,1.66,0.84,3.33,1.17,5.01c1.98,10.18,2.9,20.32-0.7,30.42
		c-8.09,22.74-15.51,46.7-8.03,68.68C808.45,254.02,812.62,251.39,816.99,249.38z"/>
	<path class="st3" d="M520.03,543.67c3.6,29.35-25.12,32.59-44.26,44.17c-14.29,8.65-29.54,15.82-44.71,22.9
		c-14.95,6.98-14.79-9.86-21.22-15.5c-4.22-3.69,4.49-4.52,7-5.82c33.29-17.34,66.85-34.16,100.35-51.09
		C519.2,537.31,521.16,536.8,520.03,543.67z"/>
	<path class="st1" d="M486.12,546.44c-25.09,13.43-50.17,26.88-75.27,40.29c-3.76,2.01-33.79-19.06-33.95-23.81
		c-0.01-0.35,0.72-0.91,1.2-1.06c28.44-9.08,56.9-18.13,85.35-27.18C473.46,533.86,480.99,537.84,486.12,546.44z"/>
	<path class="st1" d="M371.72,556.83c-8.43-5.64-18.88-12.62-29.33-19.61c0.82-0.77,1.5-1.91,2.47-2.25
		c18.28-6.47,36.31-13.82,54.97-18.93c16.66-4.56,24.44,14.87,39.07,17.13c-0.4,0.73-0.66,1.95-1.23,2.12
		C416.18,541.78,397.97,557.63,371.72,556.83z"/>
	<path class="st2" d="M500.08,304.31c-0.79,4.42-1.42,7.9-2.05,11.39c-3.22-1.48-6.51-2.84-9.65-4.46
		c-12.5-6.47-23.84-6.88-33.03,5.75c-0.67,0.92-3.07,1.86-3.4,1.52c-1.76-1.75-3.27-3.82-4.48-6c-0.23-0.4,1.08-2.21,2.01-2.63
		c9.77-4.44,11.61-32.7,3.29-40.31c-8.11-7.42-15.12-16.03-22.57-24.16c-0.34-0.37-0.3-1.07-0.44-1.62c1.45-0.24,2.9-0.71,4.35-0.69
		c21.49,0.34,34.54,13.75,46.35,29.48c2.23,2.97,5.16,13.83,10.61,1.7c1.26,0.8,3.42,1.4,3.64,2.43
		C496.72,286.1,498.41,295.54,500.08,304.31z"/>
	<path class="st2" d="M260.85,397.58c-0.74,0.94,0.15-0.42-0.01,0.13c-5.68,18.8-24.18,36.51-4.81,57.45
		c0.09,0.1-0.83,1.55-1.12,1.5c-12.79-2.36-13.45,29-34.07,10.48c-12.06-10.83-6.12-17.92-4.01-28.08
		C221.81,415.09,230.91,396.05,260.85,397.58z"/>
	<path class="st2" d="M691.95,486.18c-3.66,12.48-6.14,20.92-8.62,29.36c-18.77-5.75-37.54-11.5-56.31-17.25
		c3.52-7.43,7.31-21.34,10.52-21.21C655.5,477.8,674.32,478.12,691.95,486.18z"/>
	<path class="st1" d="M178.16,641.84c-9.98,20.72-16.29,7.48-25.2-1.72c-23.14-23.9-40.64-51.56-57.11-80.08
		c29.12,22.27,53.28,49.6,77.85,76.49C175.25,638.24,176.68,640.07,178.16,641.84z"/>
	<path class="st1" d="M283.84,468.92c-12.68-8.89-30.59-15.21-32.66-36.47c-0.49-5.07,3.71-8.91,7.83-6.9
		c15.23,7.41,35.74,8.08,44,24.3C307.28,458.21,299.34,468.89,283.84,468.92z"/>
	<path class="st1" d="M477.1,626.29c-8.98,5.9-17.79,16.17-26.98,16.53c-10.44,0.4-14.19-14.54-21.51-22.21
		c1.82-1.57,3.41-3.58,5.49-4.65c14.09-7.27,28.29-14.34,42.44-21.47C476.73,605.09,476.92,615.69,477.1,626.29z"/>
	<path class="st3" d="M486.12,546.44c-5.13-8.59-12.66-12.57-22.67-11.76c19.18-6.23,29.79-32.2,55.32-23.95
		c4.18,1.35,6.8,3.66,6.6,8.11c-0.19,4.4,1.74,9.06-5.06,11.68C508.6,535.01,497.48,541.05,486.12,546.44z"/>
	<path class="st3" d="M501.46,623.84c4.82,28.8-16.81,36.3-36.58,44.86c-1.2,0.52-6.12-3.69-6.63-6.23c-1-5.02-10.5-9.61-3.57-14.48
		c13.55-9.51,28.3-17.31,42.58-25.77c1.07-0.63,2.42-0.78,3.64-1.15C501.09,622,501.27,622.92,501.46,623.84z"/>
	<path class="st3" d="M477.1,626.29c-0.19-10.6-0.37-21.2-0.55-31.8c10.87-6.06,21.73-12.13,32.67-18.06
		c0.36-0.19,2.27,1.19,2.23,1.73C509.52,600.96,500.64,618.87,477.1,626.29z"/>
	<path class="st3" d="M473.47,689.2c-9.51-11.42-2.87-17.25,7.57-21.67c5.66-2.39,11.39-4.59,17.09-6.87
		c-3.44,11.36,2.25,25.73-13.82,32.75C477.45,698.12,476.96,693.13,473.47,689.2z"/>
	<path class="st3" d="M470.85,314.25c3.25-0.63,6.61-0.61,9.83,0.17c5.93,1.44,11.22,3.65,11.14,11.37
		c-0.08,8.88-7.93,11.8-15.43,12.57c-11.68,1.2-16.26-9.96-17.33-16.64C458.15,316.06,464.99,315.39,470.85,314.25z"/>
	<path class="st2" d="M490.54,728.7c-3.27,6.52-6.53,13.05-9.88,19.53c-0.1,0.19-1.7-0.1-1.7-0.21
		c-1.18-29.83-25.58-43.62-42.94-62.26c-1.03-1.1-1.42-2.79-2.11-4.21l-0.13-0.04c20.94,13.28,44.34,24.37,46.82,53.8
		c0.27,3.18,1.9,2.54,3.03-1.9c0.36-1.44,0.68-2.89,1.01-4.34C486.6,728.95,488.57,728.83,490.54,728.7z"/>
	<path class="st2" d="M617.47,486.04c-9.25-1.35-18.86-2.76-28.48-4.16c2.17-2.84,5.18-8.44,6.38-8.07
		c10.12,3.07,24.02-4.71,30.2,8.05C628.27,487.41,620.5,483.87,617.47,486.04z"/>
	<path class="st1" d="M490.54,728.7c-1.97,0.12-3.94,0.25-5.9,0.37c-1.19-7.36-6.78-17.09-5.24-23.83c1.64-7.14,8.9-3.44,13.79-3.96
		c1.16-0.12,2.2,0.68,2.27,1.84c0.17,2.91,0.47,7-1,10.66C493.33,718.8,491.86,723.73,490.54,728.7z"/>
	<path class="st1" d="M490.83,688.04c1.23,1.15-2.74,3.44-4.29,4.52c-1.92,1.47-9.18,7.66-13.73-3.76c-0.17-0.43-3.95-7.67-4-8.13
		c-0.86-8.76,6.06-10.84,13.23-13.61c0.2-0.08-0.5,7.6,2.52,12.58"/>
	<path class="st2" d="M433.91,681.55c-0.08,0.05-0.16,0.1-0.24,0.16c0.04-0.06,0.08-0.13,0.11-0.19
		C433.78,681.51,433.91,681.55,433.91,681.55z"/>
	<path class="st2" d="M300.12,402.6c-0.11-7.2,1.05-11.88,7.87-11.79c0.98,0.01,2.89,2.4,2.76,2.6c-2.88,4.23-6,8.3-9.06,12.4
		C300.93,404.26,300.17,402.71,300.12,402.6z"/>
</g>
</svg>
