<?xml version="1.0" encoding="utf-8"?>
<!-- Generator: Adobe Illustrator 27.0.0, SVG Export Plug-In . SVG Version: 6.00 Build 0)  -->
<svg version="1.1" id="Layer_1" xmlns="http://www.w3.org/2000/svg" xmlns:xlink="http://www.w3.org/1999/xlink" x="0px" y="0px"
	 viewBox="0 0 913.1 805.42" style="enable-background:new 0 0 913.1 805.42;" xml:space="preserve">
<style type="text/css">
	.st0{fill:#1E0A52;stroke:#1E0A52;stroke-width:80;stroke-miterlimit:10;}
	.st1{fill:#FB01E0;}
	.st2{fill:#FAB333;}
	.st3{fill:#FCFC03;}
	.st4{fill:url(#SVGID_1_);}
</style>
<circle class="st0" cx="402.82" cy="402.8" r="361.21"/>
<g>
	<path class="st0" d="M742.5,488.13c5.17-0.52,12.27,9.14,15.3-1.08c7.79-26.29,10.1-53.57,9.71-80.83"/>
	<path class="st0" d="M736.13,551.54c6.2-13.44,1.75-16.54-10.77-15.51"/>
	<path class="st0" d="M759.61,534.78c82.49,0.36,120.52-40.72,111.62-126.91c-0.77-6.71-6.94-4.39-11.48-4.39
		c-15.69,0.94-53.13,2.62-68.75,4.53c-4.11,0.5-9.71,2.02-8.99,7.03c2.65,18.36,5.21,36.81,13.33,53.89
		c16.3,34.3,7.77,47.35-30.96,47.87"/>
	<path class="st0" d="M781.72,146.75c10.29,14.62,14.68,29.54,3.65,45.79c-3.25,4.78-5.86,9.55-7.91,14.3
		c-10.03,23.31-5.87,46.26,9.91,69.02c0.88,1.26,1.74,2.53,2.58,3.8c11.65,17.53,19.9,35.75,15.63,58.62
		c-3.26,17.47,2.58,34.53,10.61,50.31c1.14,2.24,1.64,3.48,4.31,3.8c1.76,0.24,4.25,0.11,3.7-1.15c-6.84-23.5-9.03-55.64-5.19-68.98
		c2.03-8.48-1.91-25.19-7.72-36.02c-1.1-2.06-2.3-4.12-3.56-6.2c-11.45-18.93-27.63-38.6-20.15-59.8c0.75-2.14,1.75-4.29,3.01-6.46
		c19.33-33.14,17.83-60.27-4.61-88.9c-3.44-4.39-5.08-7.33-6.12-10.01c-1.13-2.48-1.65-5.61-2.95-4.89
		c-7.74,7.18-5.47,15.59-2.44,23.71C776.22,138.31,778.87,142.7,781.72,146.75z"/>
	<path class="st0" d="M809.36,259.02c1.93,5.66,4.83,11.19,8.97,16.53c18.37,23.65,37.15,43.67,19.35,79.24
		c-2.21,4.17-6.96,8.14-5.56,11.82c0.61,1.61,5.54,5.27,8.86,5.36c5.74,0.16-0.09-4.17,1.48-6.52c17.68-26.6,20.95-64.06-7.22-92.81
		c-6.65-6.79-11.62-14.22-14.3-22.32c-3.36-10.17-3.13-21.4,1.9-33.76c7.68-18.87,18.26-38.76,0.03-58.04
		c-1.48-1.56-3.16-2.93-4.82-4.32c-0.53-0.44-1.31,0.05-1.14,0.71c0.42,1.66,0.84,3.33,1.17,5.01c1.98,10.18,2.9,20.32-0.7,30.42
		C809.3,213.09,801.88,237.05,809.36,259.02z"/>
</g>
<g>
	<path class="st1" d="M453.94,289.56c0.16,0.94-0.39,1.77-1.23,2.24c-2.68,1.51,8.17,18.69-7.52,5.21
		c-3.35-2.88-8.57-3.12-11.37,1.63c-3.06,5.2,3.28,4.37,5.04,6.48c1.33,1.6,2.9,2.99,4.51,4.35c1.32,1.11,0.74,3.25-0.96,3.54
		c-2.17,0.37-4.35,0.7-6.52,0.7c-13.37,0.02-26.34,2.08-30.97,16.59c-8.31,26.03-31.75,23.39-51.22,29.56
		c-40.29,12.76-80.16,26.83-120.2,40.34c-0.09,0.03-0.19,0.06-0.28,0.09c-1.62,0.51-3.17-1.16-2.46-2.71
		c0.01-0.01,0.01-0.02,0.02-0.03c8.72-18.47,15.85-37.97,26.71-55.09c11.54-18.2-2.86-27.33-8.95-40.36
		c-13.21-28.29,2.52-56.86,1.13-85.45c-2.06-42.21,14.34-80.02,29.43-118.05c4.5-11.35,14.74-13.12,25.06-13.58
		c10.09-0.45,18.55,4.93,21.94,13.58c10.36,26.41,21.98,52.78,28.07,80.27c6.14,27.76-2.54,54.07-20.63,77.2
		c-8.4,10.75-20.41,24.88,4.48,32.37c0.72,0.22,1.15,1.45,1.64,2.25c0.02,0.04-0.83,0.8-0.95,0.72c-9.54-6.06-16.14,7.78-21.81,5.2
		c-11.21-5.11-20.81-14.14-16.52-29.38c2.76-9.81-0.92-17.55-5.91-26.06c-2.96-5.05-2.63-12.04-3.1-18.55
		c-0.11-1.46,1.3-2.56,2.68-2.08c1.76,0.62,3.53,1.22,5.33,1.69c0.49,0.13,2.05-1.49,1.92-1.76c-1.39-3.04-3.11-5.92-4.55-8.94
		c-0.9-1.89-1.68-3.84-2.46-5.78c-0.51-1.27,0.36-2.66,1.72-2.77c1.49-0.12,2.97-0.24,4.46-0.32c22.17-1.22,17.09-16.45,13.25-28.58
		c-6.66-20.99-6.58-42.53-8.39-63.97c-0.03-0.4-0.1-0.8-0.18-1.19c-0.31-1.49-2.08-2.17-3.25-1.2c-0.35,0.3-0.66,0.62-0.85,1
		c-12.17,23.35-32.28,45.16-32.45,71.44c-0.24,35.6-14.45,69.27-10.54,104.88c1.74,15.82,19.55,24.05,17.8,42.56
		c-1.44,15.23-2.93,30.21-6.72,45c-0.36,1.4-0.36,2.9-0.35,4.4c0.01,1.18,1.02,2.1,2.2,2c1.32-0.11,2.65-0.23,3.94-0.49
		c22.77-4.53,27.66-23.52,37.02-41.15c12.65-23.81,30.26-46.03,46.98-66.28c9.84-11.92,23.59-44.7,52.76-29.67
		C430.81,251.27,449.44,263.8,453.94,289.56z"/>
	<path class="st1" d="M147.53,466.54c5.49-15.52,10.61-30.05,15.85-44.53c0.14-0.38,2.13-0.67,2.39-0.33
		c34.83,44.12,83.36,69.35,131.95,93.76c79.6,39.99,135.07,102.68,175.52,180.33c0.72,1.37,0.74,3.11,1.08,4.68
		c-1.01-1.02-2-2.07-3.04-3.06c-46.36-44.46-101.36-70.37-163.54-87.4c-33.69-9.23-59.83-39.56-87.8-62.54
		c-24.46-20.09-47.2-41.81-65.78-67.55C151.31,475.93,149.71,471.01,147.53,466.54z"/>
	<path class="st1" d="M182.12,642.79c26.47,37.68,44.97-0.91,63.01-9.65c20.97-10.16,26.8-7.97,34.88,12.61
		c6.85,17.43,20.16,32.29,30.33,48.46c11.6,18.45,18.17,7.94,25.72-3.67c5.19-7.98,12.12-14.81,17.84-22.47
		c5.32-7.11,10.87-2.36,14.3,0.64c29.51,25.8,60.14,50.53,83.42,82.62c0.65,0.89,1.18,1.86,1.77,2.8c-1.21,0.3-2.4,0.76-3.63,0.87
		c-97.97,8.82-187.64-13.54-266.41-73.33c-45.66-34.66-80.06-79.01-103.66-131.44c-1.38-3.07-1.88-6.54-2.79-9.83
		c3.16,1.85,6.81,3.19,9.38,5.65c4.84,4.64,9.05,9.92,13.53,14.94c16.47,28.52,33.97,56.18,57.11,80.08
		C165.82,650.27,172.13,663.5,182.12,642.79z"/>
	<path class="st1" d="M767.51,406.22c-2.14-150.65-73.35-258.46-207.4-323.69c-131.99-64.22-299.25-36.05-403.72,66.96
		C55.56,248.89,31.03,369.32,64.75,504.23c2.69,10.75,7.31,12.82,16.33,7.35c-12.1-45.72-18.68-92.27-14.97-139.43
		c4.92-62.49,24.25-120.05,61.99-171.27c38.85-52.72,88.32-90.63,149.24-114.04c10.73-3.19,21.47-6.37,32.2-9.56
		c3.15-1.39,6.18-3.23,9.47-4.09c75.97-19.92,150.25-15.29,223.16,14.38c77.76,31.65,135.29,85.9,174.5,158.88
		c41.12,76.52,44.28,158.23,25.83,241.7c5.17-0.52,12.27,9.14,15.3-1.08C765.59,460.76,767.9,433.47,767.51,406.22z"/>
	<path class="st1" d="M481.8,350.12c3.04,27.33-11.13,36.94-25.49,46.68c-3.19,2.16-5.32,5.95-7.76,9.12
		c-5.47,7.13-8.01,14.73-21.76,8.68c-8.06-3.55-16.88,12.09-22.18,20.77c-4.59,7.51-14.83,15.38-7.84,27.02
		c0.2,0.33-0.55,1.4-1.05,1.94c-1.74,1.88-14.11-10.47-6.1,5.6c8.29,16.65-9.54,13.85-17.65,18.27
		c-24.1,13.17-45.04,12.32-62.27-11.67c-7.28-10.13,6.37-16.63,3.31-25.53c-7.79-22.63-31.51-19.89-47.73-28.95
		c-4.44-2.48-3.73-2.25-2.64-6.1c6.95-24.49,28.1-28.55,48.19-34.07c22.74-6.25,45.57-12.17,68.39-18.14
		c1.42-0.37,3.04,0.01,4.56,0.04c-1.1,0.94-2.22,1.86-3.29,2.83c-17.38,15.79-25.31,39.86-45.74,52.82
		c-7.53,4.78-15.22,11.1-25.55,7.58c-0.71-0.24-2.23,0.65-2.74,1.43c-0.49,0.74-0.44,2.83-0.13,2.94c1.59,0.58,3.34,0.98,5.03,0.96
		c36.57-0.33,48.19-30.85,66.47-53.92c6.32-7.98,11.7-28.01,27.96-5.49c18.84,26.1,44.4,22,59.19-6.67
		c2.42-4.69,5.53-9.07,8.71-13.3c1.91-2.54,4.58-4.5,6.92-6.72C481.69,349.76,482.77,353.28,481.8,350.12z M298.13,404.31
		c0.71,3.01-2.33,11.2,5.11,11.06c11.69-0.21,17.92-8.84,19.1-19.9c0.47-4.39-0.78-10.39-8-10.03
		C303.48,385.97,297.23,390.95,298.13,404.31z"/>
	<path class="st1" d="M649.42,647.68c0.06-0.04,0.12-0.08,0.17-0.13c34.66-28.31,57.23-64.98,73.44-106.06
		c0.59-1.5,1.24-2.97,1.88-4.45c0.27-0.63,0.87-1.06,1.55-1.1c11.67-0.75,15.68,2.56,9.66,15.59
		c-34.36,74.44-88.7,129.37-161.29,166.58c-16.53,8.47-33.82,15.47-50.77,23.12c-0.01,0-0.02,0.01-0.03,0.01
		c-1.25,0.55-2.64-0.56-2.47-1.91c0.07-0.54,0.18-1.07,0.39-1.56c19.42-46.01,38.33-92.27,59.07-137.68
		c2.82-6.17,13.45,1.84,20.49,2.97c9.14,1.47,18.03,4.51,27.01,6.94c20.9,5.65,7.2,23.87,12.68,35.14c0.62,1.27,0.95,2.68,1.25,4.11
		c0.27,1.25,1.71,1.83,2.78,1.14C646.65,649.49,648.04,648.59,649.42,647.68z"/>
	<path class="st1" d="M759.61,534.78c-23.62,2.26-43.5-10.8-65.27-16.11c-0.58-0.14-1.25-4.07-0.44-5.02
		c2.69-3.15,0.33-11.1,8.15-9.36c20.69,4.6,40.63,12.79,62.32,12.5c38.73-0.51,47.26-13.57,30.96-47.87
		c-8.12-17.08-10.68-35.53-13.33-53.89c-0.72-5.01,4.87-6.53,8.99-7.03c15.62-1.9,53.06-3.59,68.75-4.53
		c4.55,0,10.71-2.32,11.48,4.39C880.13,494.06,842.1,535.14,759.61,534.78z"/>
	<path class="st1" d="M523.88,164.45c0.54,23.48-1.39,46.82-8.44,69.26c-3.6,11.46-1.63,22.18,1.32,32.7
		c3.37,12.02-6.02,20.81-6.08,31.71c0,0.24-0.6,0.47-0.92,0.7c-0.43-0.99-1.24-1.99-1.23-2.98c0.11-13.5-4.2-27.38-7.66-39.04
		c-5.13-17.31,0.94-33.8-3.81-50c-0.31-1.07-0.12-2.29,0.18-3.54c0.28-1.18,1.87-1.41,2.48-0.36c0.7,1.2,1.29,2.4,1.33,3.62
		c1.93,11.47,1.43,17.98,1.64,30.34c0.01,0.67,0,5.47,0.68,6c1.26,0.99,1.69,0.53,1.89-1.06c0-0.03,1.3-9.36,1.31-9.39
		c3.51-29.4,10.41-44.88,8.56-74.89c-0.15-2.43-3.15-6.89-3.9-6.7c-3.12,0.78-7.91,2.47-8.48,4.73
		c-7.84,31.52-28.2,60.3-20.84,95.25c1.1,5.22-3.79,1.63-4.97,1.13c-9.74-4.1-19.31-8.6-28.89-13.06c-0.56-0.26-1.27-1.6-1.09-1.87
		c20.57-29.64,29.33-64.94,46.29-96.27c4.48-8.28,10.82-18.74,21.86-15.25c10.35,3.27,7.76,15.24,8.68,24.04
		C524.3,154.43,523.88,159.46,523.88,164.45z"/>
	<path class="st2" d="M788.97,214.19c1.21,0.42,2.29-1.21,2.77-2.39c0.52-1.25,1.01-2.93,1.81-4.29
		c19.33-33.14,14.9-54.01-7.53-82.64c-3.44-4.39-5.08-7.33-6.12-10.01c-1.13-2.48-1.65-5.61-2.95-4.89
		c-7.74,7.18-5.47,15.59-2.44,23.71c1.72,4.62,4.37,9.01,7.22,13.06c10.29,14.62,14.68,29.54,3.65,45.79
		c-2.94,4.34-3.76,5.68-5.76,9.97c-0.75,1.61,0.63,3.31,0.97,3.87C782.13,208.94,785.16,212.87,788.97,214.19z"/>
	<path class="st3" d="M786.86,219.71c-3.77-2.67-7.26-5.19-9.35-8.57c-0.63-1.02-1.59-0.48-1.98,0.58
		c-8.17,22.1-3.14,42.52,11.84,64.13c0.77,1.1,1.52,2.21,2.26,3.32c1.11,1.66,3.63,3.2,5.61,3.49c3.83,0.55,7.55,1.77,11.52,1.9
		c1.67,0.05,2.74-1.76,1.86-3.18c-11.07-17.82-27.78-40.35-21.29-60.28C787.49,220.59,787.31,220.03,786.86,219.71z"/>
	<path class="st3" d="M824.22,391.24c-6.84-23.5-9.03-55.64-5.19-68.98c2.03-8.48-1.91-25.19-7.72-36.02
		c-1.1-2.06-2.3-4.12-3.56-6.2c-5.94-1.47-11.87-0.11-17.81-0.38c11.65,17.53,19.9,35.75,15.63,58.62
		c-3.26,17.47,2.58,34.53,10.61,50.31c1.14,2.24,1.64,3.48,4.31,3.8C822.27,392.63,824.77,392.5,824.22,391.24z"/>
	<path class="st3" d="M288.66,496.05c2.05-1.09,2.85-2.03,5.08-3.63c2.61-1.88,4.58-3.46,7.09-5.09c4.39-2.86,4.23-6.89-0.55-9.02
		c-0.42-0.18-0.74-0.29-0.93-0.31c-15.97-1.23-23.33-9.92-35.96-15.88c-0.54-0.25-1.14-0.36-1.73-0.27
		c-9.68,1.44-10.92,9.2-14.42,14.66c-0.81,1.27-0.65,2.92,0.43,3.96c1.8,1.73,3.57,3.51,5.68,4.67c8.88,4.9,17.75,9.81,26.64,14.69
		c0.69,0.38,1.51,0.5,2.27,0.29"/>
	<path class="st3" d="M290.98,502.24c-2.69,2.41,0.08,3.53,2.23,4.69c11.17,6.09,15.92,8.69,27.22,14.52
		c7.62,3.93,13.11,13.54,23.74,10.3c11.92-3.64,23.77-7.48,35.58-11.47c20.17-6.81,26.84-10.21,25.63-12.7
		c-8.33-17.19-19.46-22.55-37.66-12c-10.44,6.05-23.47,13.84-35.47,4.91c-11.86-8.83-23.08-13.55-35.32-3.59"/>
	<path class="st1" d="M578.11,581.71c0.92,0.84,0.86,2.32-0.13,3.08c-6.19,4.81-12.01,9.2-17.62,13.82
		c-16,13.17-31.88,26.48-47.84,39.7c-0.1,0.08-0.19,0.16-0.29,0.23c-1.45,1.09-3.54-0.15-3.21-1.94c0-0.01,0-0.03,0.01-0.04
		c0.02-0.09,0.05-0.18,0.07-0.27c10.52-43.7,19.86-66.12,20.01-93.56c1.39-5.67,6.99,0.8,9.37,2.88
		C551.81,557.31,564.77,569.44,578.11,581.71z"/>
	<path class="st3" d="M842.46,365.46c17.68-26.6,20.95-64.06-7.22-92.81c-6.15-6.28-10.61-12.67-13.4-20.07
		c-0.37-0.98-1.29-1.29-2.23-0.81c-3.41,1.75-7.11,3.39-9.64,6.47c-0.39,0.48-0.5,1.14-0.29,1.71c1.92,5.33,4.73,10.55,8.65,15.6
		c18.37,23.65,37.15,43.67,19.35,79.24c-2.21,4.17-6.96,8.14-5.56,11.82c0.61,1.61,5.54,5.27,8.86,5.36
		C846.73,372.14,840.9,367.81,842.46,365.46z"/>
	<path class="st2" d="M817.48,247.55c1.11-0.55,1.62-2.87,1.29-4.06c-2.6-9.44-0.62-15.38,4.07-26.92
		c7.68-18.87,18.26-38.76,0.03-58.04c-0.29-0.3-0.58-0.6-0.88-0.89c-1.66-1.61-4.37-0.05-3.93,2.22c0,0.02,0.01,0.05,0.01,0.07
		c1.98,10.18,2.9,20.32-0.7,30.42c-7.93,22.3-17.26,37.71-10.49,59.33c0.21,0.69,2.16,1.75,3.03,1.16
		C812.82,248.89,814.47,249.04,817.48,247.55z"/>
	<path class="st2" d="M523.98,544.62c3.6,29.35-25.12,32.59-44.26,44.17c-14.29,8.65-29.54,15.82-44.71,22.9
		c-14.95,6.98-14.79-9.86-21.22-15.5c-4.22-3.69,4.49-4.52,7-5.82c33.29-17.34,66.85-34.16,100.35-51.09
		C523.16,538.26,525.11,537.75,523.98,544.62z"/>
	<path class="st3" d="M464.45,536.26c7.63-1.93,8.71,3.39,16.45,7.79c2.46,1.4,3.02,5.44,0.53,6.77
		c-23.6,12.64-43.02,24.24-66.63,36.85c-3.76,2.01-33.79-19.06-33.95-23.81c-0.01-0.35,0.72-0.91,1.2-1.06"/>
	<path class="st3" d="M375.32,557.55c-7.99-5.34-17.74-11.86-27.57-18.44c-0.73-0.49-0.87-1.52-0.27-2.17
		c0.41-0.45,0.84-0.84,1.34-1.02c18.28-6.47,36.31-13.82,54.97-18.93c15.99-4.38,23.79,13.34,37.33,16.77c1,0.25,1.5,1.48,0.82,2.26
		c-0.09,0.11-0.19,0.18-0.31,0.22c-21.36,6.46-39.49,22.17-65.52,21.56C375.83,557.79,375.56,557.7,375.32,557.55z"/>
	<path class="st1" d="M496.87,312.9c-18.26-1.25-10.19,1.81-23.42,3.03c-1.33,0.12-2.65,0.38-3.93,0.78
		c-3.62,1.16-13.35,3.02-13.63,2.74c-1.76-1.75-3.27-3.82-4.48-6c-0.23-0.4,1.08-2.21,2.01-2.63c9.77-4.44,11.61-32.7,3.29-40.31
		c-8.11-7.42-15.12-16.03-22.57-24.16c-0.34-0.37-0.3-1.07-0.44-1.62c1.45-0.24,2.9-0.71,4.35-0.69
		c21.49,0.34,34.54,13.75,46.35,29.48c2.14,2.85,4.92,12.94,9.94,3.1c0.38-0.74,1.26-1.05,2.01-0.69c1.07,0.51,2.14,1.02,2.3,1.72
		c1.9,8.78,3.5,17.63,5.07,25.93c0.22,1.16,0.19,2.33-0.02,3.49c-0.41,2.28,0.15,2.84-0.2,4.79c-0.27,1.49-0.53,2.42-2.95,1.6"/>
	<path class="st1" d="M264.8,398.52c-0.74,0.94,0.15-0.42-0.01,0.13c-5.68,18.8-24.18,36.51-4.81,57.45c0.09,0.1-0.83,1.55-1.12,1.5
		c-12.79-2.36-13.45,29-34.07,10.48c-12.06-10.83-6.12-17.92-4.01-28.08C225.76,416.03,234.87,397,264.8,398.52z"/>
	<path class="st1" d="M694.82,490.82c-2.52,8.58-4.46,15.21-6.3,21.48c-0.68,2.31-3.11,3.62-5.41,2.91
		c-15.84-4.85-31.69-9.71-47.53-14.56c-2.41-0.74-3.68-3.37-2.76-5.71c2.97-7.5,6.02-17.02,8.69-16.91
		c16.73,0.67,34.23,1,50.81,7.57C694.37,486.41,695.45,488.7,694.82,490.82z"/>
	<path class="st3" d="M290.11,469.78c-1.41,0.1-2.81-0.28-3.99-1.06c-12.53-8.32-29-14.99-30.98-35.33
		c-0.49-5.07,3.71-8.91,7.83-6.9c15.23,7.41,35.74,8.08,44,24.3C311.01,458.73,304.08,468.76,290.11,469.78z"/>
	<path class="st3" d="M478.48,627.13c0.34,1.5-1.01,3.14-1.84,3.73c-8.51,5.98-13.83,12.58-22.57,12.91
		c-9.57,0.37-13.52-12.16-19.75-20.15c-0.94-1.21-0.81-2.92,0.28-3.99c1.08-1.05,2.17-2.06,3.44-2.72
		c12.67-6.53,21.78-11,34.52-17.41c1.98-1,4.07,0.97,4.11,3.19C476.84,611.16,476.69,619.2,478.48,627.13z"/>
	<path class="st2" d="M488.64,545.19c-3.07-4.29-6.88-7.17-11.44-8.61c-2.48-0.78-2.94-4.05-0.78-5.5
		c14.13-9.43,25.04-26.29,46.3-19.42c4.18,1.35,6.8,3.66,6.6,8.11c-0.19,4.4,1.74,9.06-5.06,11.68
		c-10.87,4.18-21.24,9.68-31.76,14.76C491.14,546.88,489.52,546.42,488.64,545.19z"/>
	<path class="st2" d="M505.41,624.79c4.82,28.8-16.81,36.3-36.58,44.86c-1.2,0.52-6.12-3.69-6.63-6.23c-1-5.02-10.5-9.61-3.57-14.48
		c13.55-9.51,28.3-17.31,42.58-25.77c1.07-0.63,2.42-0.78,3.64-1.15C505.05,622.95,505.23,623.87,505.41,624.79z"/>
	<path class="st2" d="M480.92,619.59c-0.12-6.99-0.24-13.98-0.36-20.97c-0.03-1.96,1.02-3.79,2.73-4.74
		c9.94-5.54,19.88-11.09,29.89-16.51c0.36-0.19,2.27,1.19,2.23,1.73c-1.71,20.2-8.88,36.57-26.86,45.19
		C485.05,625.98,480.99,623.47,480.92,619.59z"/>
	<path class="st2" d="M491.02,674.79c1.06-8.37-0.63-6.34,3.39-10.5c4.31-3.48,4.82-3.54,7.92-5.37c2.24-1.33,4.98,0.66,4.39,3.2
		c-2.19,9.31,0.39,9.16-2.72,17.22c-1.16,2.47-2.81,6.73-6.39,5.52C494.25,683.72,490.42,679.44,491.02,674.79z"/>
	<path class="st1" d="M492.52,730.1c0.85-0.05,1.5,0.5,1.12,1.26c-2.99,5.95-5.97,11.91-9.03,17.82c-0.1,0.19-1.7-0.1-1.7-0.21
		c-1.18-29.83-25.58-43.62-42.94-62.26c-1.03-1.1-1.42-2.79-2.11-4.21l-0.13-0.04c20.94,13.28,44.34,24.37,46.82,53.8
		c0.27,3.18,1.9,2.54,3.03-1.9c0.3-1.17,0.36-1.73,0.63-2.91c0.11-0.47,0.63-1.13,1.11-1.16
		C490.38,730.22,491.46,730.16,492.52,730.1z"/>
	<path class="st1" d="M620.32,486.83c-7.11-1.04-14.43-2.11-21.8-3.18c-2.58-0.38-3.87-3.31-2.41-5.48
		c1.33-1.98,2.55-3.61,3.22-3.41c10.12,3.07,24.02-4.71,30.2,8.05c2.48,5.12-3.94,2.51-7.33,3.77
		C621.6,486.81,620.96,486.92,620.32,486.83z"/>
	<path class="st3" d="M492.94,727.44c-0.77,0.05-1.89,0.1-2.66,0.15c-1.05,0.07-2.08-0.91-2.32-1.94
		c-1.67-7.09-5.99-14.85-4.56-21.05c1.65-7.18,8.97-3.41,13.86-3.97c1.14-0.13,2.13,0.7,2.19,1.84c0.17,2.91,0.47,7.01-1,10.67
		c-0.99,4.45-2.12,7.76-3.32,12.17C494.85,726.3,493.97,727.38,492.94,727.44z"/>
	<path class="st3" d="M494.79,688.98c1.23,1.15-2.74,3.44-4.29,4.52c-1.92,1.47-9.18,7.66-13.73-3.76c-0.17-0.43-3.81-7.7-4-8.13
		c-2.37-5.27,5.28-12.85,12.73-10.98c4.06,1.02,0,4.97,3.02,9.95"/>
	<path class="st1" d="M437.86,682.5c-0.08,0.05-0.16,0.1-0.24,0.16c0.04-0.06,0.08-0.13,0.11-0.19
		C437.73,682.46,437.86,682.5,437.86,682.5z"/>
	<path class="st1" d="M304.27,403.94c-0.14-0.3-0.2-0.52-0.2-0.75c-0.07-7,1.16-11.53,7.88-11.44c2.51-0.2,2.72,2.66,2.83,3.67
		c0.78,7.24-4.58,7.87-7.64,9.34c-1.02,0.49-2.08,0.77-2.58-0.25L304.27,403.94z"/>
</g>
<linearGradient id="SVGID_1_" gradientUnits="userSpaceOnUse" x1="409.1702" y1="653.7793" x2="409.1702" y2="61.0809">
	<stop  offset="0" style="stop-color:#FAB333"/>
	<stop  offset="0.1436" style="stop-color:#FAB631"/>
	<stop  offset="0.2573" style="stop-color:#FAC02A"/>
	<stop  offset="0.3607" style="stop-color:#FBD11F"/>
	<stop  offset="0.4575" style="stop-color:#FBE810"/>
	<stop  offset="0.5209" style="stop-color:#FCFC03"/>
</linearGradient>
<path class="st4" d="M241.4,248.28c-0.93,26.73-7.71,52.11,15.06,73.33c1.87,1.74-0.38,9.15-2.15,13.31
	c-9.61,22.59-18,46-30.62,66.81c-3.7,6.1-19.81,5.14-30.34,6.55c-38.93,5.19-56.95,34.58-45.4,73.2c0.4,1.32-8.47,6.1-13.46,8.23
	c-17.7,7.53-35.59,14.61-53.41,21.86c-12.1-45.72-18.68-92.27-14.97-139.43c4.92-62.49,24.25-120.05,61.99-171.27
	c38.85-52.72,88.32-90.63,149.24-114.04C254.72,138.28,243.37,191.79,241.4,248.28z M99.8,560.98
	c16.47,28.52,33.97,56.18,57.11,80.08c8.91,9.2,15.22,22.44,25.2,1.72c-1.49-1.77-2.91-3.6-4.47-5.31
	C153.08,610.58,128.93,583.25,99.8,560.98z M716.67,246.43c-39.21-72.97-96.74-127.23-174.5-158.88
	C469.25,57.88,394.97,53.25,319,73.17c-3.29,0.86-6.32,2.71-9.47,4.09c3.7,2.47,8.04,4.34,11,7.5
	c28.37,30.3,29.47,72.2,45.77,107.59c7.72,16.77,4.39,45.45,37.11,40.85c5.01-0.71,10.61,3.14,15.99,4.67
	c11.06,3.16,20.48,2.11,26.04-9.81c13.32-28.53,26.57-57.1,40.33-85.42c6.5-13.39,15.22-27.02,32.64-21.38
	c14.1,4.57,9.53,19.49,11.02,30.78c5.02,37.98-13.1,74.42-7.34,112.3c2.27,14.88-2.27,27.49-8.86,40.29
	c-3.44,6.68-5.44,15.72,7.24,14.62c20.05-1.73,17.6,12,20.71,24.9c2.54,10.56-14.86,22.85,4.88,32.07
	c22.26,10.39,42.42,25.2,64.32,36.48c9.72,5.01,16.06,9.17,14.01,21.34c-2.11,12.5-4.35,24.03-19.58,26.62
	c-4.1,0.7-5.17,3.7-5.37,7.71c-0.25,4.96,3.7,3.94,5.66,3.87c9.46-0.34,19.37-0.48,28.38-0.29c36.77,0.76,73.14,7.47,109,16.15
	C760.95,404.66,757.78,322.94,716.67,246.43z M696.9,524.63c-21.66-6.72-43.63-12.46-65.28-19.22c-2.88-0.9-4.63-5.4-6.89-8.25
	c-0.01-0.01,0.15-0.15,0.24-0.23c-3.71-0.95-7.51-1.64-11.1-2.92c-10.53-3.75-25.09-6.15-30.93-0.3c-7.99,8-16.02,13.48-26,17.37
	c-3.44,1.34-6.8,2.91-10.19,4.37c0,0,0,0,0,0c2.9,1.88,6,3.52,8.68,5.69c21.16,17.12,42.1,34.52,63.49,51.36
	c3.56,2.8,6.92,4.89,5.85,9.65c-1.1,4.87-5.52,5.25-9.63,6.19c-7,1.6-13.88,3.75-20.81,5.67c0,0,0,0,0,0
	c6.25,2.28,13.03,3.66,18.63,7.03c10.26,6.16,28.55-2.74,31.41,18.09c1.29,9.43-3.55,20.36,5.16,28.48c0,0,0,0,0,0
	c34.71-28.32,57.3-65.02,73.53-106.13c0.73-1.84,1.55-3.64,2.32-5.47C715.89,532.18,706.63,527.65,696.9,524.63z"/>
<path class="st1" d="M605.97,434.71c0.52-1.56,1.58-3.12,2.9-4.12c1.6-1.21,2.14-3.42,1.38-5.28c-0.84-2.03-3.38-3.15-5.66-3.83
	c-18.58-5.61-25.74-2.51-35.23,3.39c-6.39,3.97-6.06,10.94-6,12.48c0.32,7.65,1.55,16.06,11.42,17.61
	c9.37,1.47,24.65,2.45,30.58-6.32c0.06-0.09,0.12-0.17,0.17-0.25c0.75-1.07,1.06-2.42,0.79-3.7c-0.06-0.27-0.13-0.48-0.24-0.52
	C603.08,443.18,603.97,438.71,605.97,434.71z M594.68,449.87c-8.65,4.63-14.68,3.89-20.92,0.36c-0.41-0.23-3.53-2.66-2.23-4.79
	c6-9.79-2.44-8.92,3.44-12.73c3.64-2.73,8.1-2.98,12.64-3c0.93,0,1.84,0.26,2.61,0.77c6.57,4.36,13.08,13.4,4.99,19.06
	C595.05,449.66,594.86,449.77,594.68,449.87z"/>
</svg>
