<?xml version="1.0" encoding="utf-8"?>
<!-- Generator: Adobe Illustrator 27.0.0, SVG Export Plug-In . SVG Version: 6.00 Build 0)  -->
<svg version="1.1" id="Layer_1" xmlns="http://www.w3.org/2000/svg" xmlns:xlink="http://www.w3.org/1999/xlink" x="0px" y="0px"
	 viewBox="0 0 913.1 805.4" style="enable-background:new 0 0 913.1 805.4;" xml:space="preserve">
<style type="text/css">
	.st0{fill:#1E0A52;stroke:#1E0A52;stroke-width:80;stroke-miterlimit:10;}
	.st1{fill:#FAB333;}
	.st2{fill:#FCFC03;}
	.st3{fill:url(#SVGID_1_);}
	.st4{fill:url(#SVGID_00000017481979170399860360000006120404860964287144_);}
</style>
<g id="Layer_1_00000034774384436943909190000008937011435071446918_">
	<g>
		<circle class="st0" cx="402.8" cy="402.8" r="361.2"/>
		<path class="st0" d="M742.5,488.1c5.2-0.5,12.3,9.1,15.3-1.1c7.8-26.3,10.1-53.6,9.7-80.8"/>
		<path class="st0" d="M736.1,551.5c6.2-13.4,1.8-16.5-10.8-15.5"/>
		<path class="st0" d="M759.6,534.8c82.5,0.4,120.5-40.7,111.6-126.9c-0.8-6.7-6.9-4.4-11.5-4.4c-15.7,0.9-53.1,2.6-68.8,4.5
			c-4.1,0.5-9.7,2-9,7c2.7,18.4,5.2,36.8,13.3,53.9c16.3,34.3,7.8,47.3-31,47.9"/>
		<path class="st0" d="M781.7,146.8c10.3,14.6,14.7,29.5,3.7,45.8c-3.2,4.8-5.9,9.6-7.9,14.3c-10,23.3-5.9,46.3,9.9,69
			c0.9,1.3,1.7,2.5,2.6,3.8c11.7,17.5,19.9,35.8,15.6,58.6c-3.3,17.5,2.6,34.5,10.6,50.3c1.1,2.2,1.6,3.5,4.3,3.8
			c1.8,0.2,4.2,0.1,3.7-1.1c-6.8-23.5-9-55.6-5.2-69c2-8.5-1.9-25.2-7.7-36c-1.1-2.1-2.3-4.1-3.6-6.2
			c-11.5-18.9-27.6-38.6-20.2-59.8c0.8-2.1,1.8-4.3,3-6.5c19.3-33.1,17.8-60.3-4.6-88.9c-3.4-4.4-5.1-7.3-6.1-10
			c-1.1-2.5-1.7-5.6-3-4.9c-7.7,7.2-5.5,15.6-2.4,23.7C776.2,138.3,778.9,142.7,781.7,146.8z"/>
		<path class="st0" d="M809.4,259c1.9,5.7,4.8,11.2,9,16.5c18.4,23.6,37.2,43.7,19.3,79.2c-2.2,4.2-7,8.1-5.6,11.8
			c0.6,1.6,5.5,5.3,8.9,5.4c5.7,0.2-0.1-4.2,1.5-6.5c17.7-26.6,21-64.1-7.2-92.8c-6.7-6.8-11.6-14.2-14.3-22.3
			c-3.4-10.2-3.1-21.4,1.9-33.8c7.7-18.9,18.3-38.8,0-58c-1.5-1.6-3.2-2.9-4.8-4.3c-0.5-0.4-1.3,0.1-1.1,0.7c0.4,1.7,0.8,3.3,1.2,5
			c2,10.2,2.9,20.3-0.7,30.4C809.3,213.1,801.9,237.1,809.4,259z"/>
	</g>
	<g>
		<path class="st1" d="M789,214.2c1.2,0.4,2.3-1.2,2.8-2.4s1-2.9,1.8-4.3c19.3-33.1,14.9-54-7.5-82.6c-3.4-4.4-5.1-7.3-6.1-10
			c-1.1-2.5-1.7-5.6-3-4.9c-7.7,7.2-5.5,15.6-2.4,23.7c1.7,4.6,4.4,9,7.2,13.1c10.3,14.6,14.7,29.5,3.7,45.8
			c-2.9,4.3-3.8,5.7-5.8,10c-0.8,1.6,0.6,3.3,1,3.9C782.1,208.9,785.2,212.9,789,214.2z"/>
		<path class="st2" d="M786.9,219.7c-3.8-2.7-7.3-5.2-9.3-8.6c-0.6-1-1.6-0.5-2,0.6c-8.2,22.1-3.1,42.5,11.8,64.1
			c0.8,1.1,1.5,2.2,2.3,3.3c1.1,1.7,3.6,3.2,5.6,3.5c3.8,0.5,7.5,1.8,11.5,1.9c1.7,0,2.7-1.8,1.9-3.2
			c-11.1-17.8-27.8-40.4-21.3-60.3C787.5,220.6,787.3,220,786.9,219.7z"/>
		<path class="st2" d="M824.2,391.2c-6.8-23.5-9-55.6-5.2-69c2-8.5-1.9-25.2-7.7-36c-1.1-2.1-2.3-4.1-3.6-6.2
			c-5.9-1.5-11.9-0.1-17.8-0.4c11.7,17.5,19.9,35.8,15.6,58.6c-3.3,17.5,2.6,34.5,10.6,50.3c1.1,2.2,1.6,3.5,4.3,3.8
			C822.3,392.6,824.8,392.5,824.2,391.2z"/>
		<path class="st2" d="M288.7,496c2-1.1,2.9-2,5.1-3.6c2.6-1.9,4.6-3.5,7.1-5.1c4.4-2.9,4.2-6.9-0.5-9c-0.4-0.2-0.7-0.3-0.9-0.3
			c-16-1.2-23.3-9.9-36-15.9c-0.5-0.2-1.1-0.4-1.7-0.3c-9.7,1.4-10.9,9.2-14.4,14.7c-0.8,1.3-0.6,2.9,0.4,4c1.8,1.7,3.6,3.5,5.7,4.7
			c8.9,4.9,17.7,9.8,26.6,14.7c0.7,0.4,1.5,0.5,2.3,0.3"/>
		<path class="st2" d="M291,502.2c-2.7,2.4,0.1,3.5,2.2,4.7c11.2,6.1,15.9,8.7,27.2,14.5c7.6,3.9,13.1,13.5,23.7,10.3
			c11.9-3.6,23.8-7.5,35.6-11.5c20.2-6.8,26.8-10.2,25.6-12.7c-8.3-17.2-19.5-22.5-37.7-12c-10.4,6-23.5,13.8-35.5,4.9
			c-11.9-8.8-23.1-13.5-35.3-3.6"/>
		<path class="st2" d="M842.5,365.5c17.7-26.6,21-64.1-7.2-92.8c-6.2-6.3-10.6-12.7-13.4-20.1c-0.4-1-1.3-1.3-2.2-0.8
			c-3.4,1.8-7.1,3.4-9.6,6.5c-0.4,0.5-0.5,1.1-0.3,1.7c1.9,5.3,4.7,10.5,8.7,15.6c18.4,23.6,37.2,43.7,19.3,79.2
			c-2.2,4.2-7,8.1-5.6,11.8c0.6,1.6,5.5,5.3,8.9,5.4C846.7,372.1,840.9,367.8,842.5,365.5z"/>
		<path class="st1" d="M817.5,247.6c1.1-0.6,1.6-2.9,1.3-4.1c-2.6-9.4-0.6-15.4,4.1-26.9c7.7-18.9,18.3-38.8,0-58
			c-0.3-0.3-0.6-0.6-0.9-0.9c-1.7-1.6-4.4-0.1-3.9,2.2v0.1c2,10.2,2.9,20.3-0.7,30.4c-7.9,22.3-17.3,37.7-10.5,59.3
			c0.2,0.7,2.2,1.8,3,1.2C812.8,248.9,814.5,249,817.5,247.6z"/>
		<path class="st1" d="M524,544.6c3.6,29.3-25.1,32.6-44.3,44.2c-14.3,8.7-29.5,15.8-44.7,22.9c-15,7-14.8-9.9-21.2-15.5
			c-4.2-3.7,4.5-4.5,7-5.8c33.3-17.3,66.9-34.2,100.3-51.1C523.2,538.3,525.1,537.8,524,544.6z"/>
		<path class="st2" d="M464.5,536.3c7.6-1.9,8.7,3.4,16.5,7.8c2.5,1.4,3,5.4,0.5,6.8c-23.6,12.6-43,24.2-66.6,36.8
			c-3.8,2-33.8-19.1-34-23.8c0-0.3,0.7-0.9,1.2-1.1"/>
		<path class="st2" d="M375.3,557.5c-8-5.3-17.7-11.9-27.6-18.4c-0.7-0.5-0.9-1.5-0.3-2.2c0.4-0.5,0.8-0.8,1.3-1
			c18.3-6.5,36.3-13.8,55-18.9c16-4.4,23.8,13.3,37.3,16.8c1,0.2,1.5,1.5,0.8,2.3c-0.1,0.1-0.2,0.2-0.3,0.2
			c-21.4,6.5-39.5,22.2-65.5,21.6C375.8,557.8,375.6,557.7,375.3,557.5z"/>
		<path class="st2" d="M290.1,469.8c-1.4,0.1-2.8-0.3-4-1.1c-12.5-8.3-29-15-31-35.3c-0.5-5.1,3.7-8.9,7.8-6.9
			c15.2,7.4,35.7,8.1,44,24.3C311,458.7,304.1,468.8,290.1,469.8z"/>
		<path class="st2" d="M478.5,627.1c0.3,1.5-1,3.1-1.8,3.7c-8.5,6-13.8,12.6-22.6,12.9c-9.6,0.4-13.5-12.2-19.8-20.2
			c-0.9-1.2-0.8-2.9,0.3-4c1.1-1,2.2-2.1,3.4-2.7c12.7-6.5,21.8-11,34.5-17.4c2-1,4.1,1,4.1,3.2
			C476.8,611.2,476.7,619.2,478.5,627.1z"/>
		<path class="st1" d="M488.6,545.2c-3.1-4.3-6.9-7.2-11.4-8.6c-2.5-0.8-2.9-4-0.8-5.5c14.1-9.4,25-26.3,46.3-19.4
			c4.2,1.4,6.8,3.7,6.6,8.1s1.7,9.1-5.1,11.7c-10.9,4.2-21.2,9.7-31.8,14.8C491.1,546.9,489.5,546.4,488.6,545.2z"/>
		<path class="st1" d="M505.4,624.8c4.8,28.8-16.8,36.3-36.6,44.9c-1.2,0.5-6.1-3.7-6.6-6.2c-1-5-10.5-9.6-3.6-14.5
			c13.5-9.5,28.3-17.3,42.6-25.8c1.1-0.6,2.4-0.8,3.6-1.2C505,623,505.2,623.9,505.4,624.8z"/>
		<path class="st1" d="M480.9,619.6c-0.1-7-0.2-14-0.4-21c0-2,1-3.8,2.7-4.7c9.9-5.5,19.9-11.1,29.9-16.5c0.4-0.2,2.3,1.2,2.2,1.7
			c-1.7,20.2-8.9,36.6-26.9,45.2C485,626,481,623.5,480.9,619.6z"/>
		<path class="st1" d="M491,674.8c1.1-8.4-0.6-6.3,3.4-10.5c4.3-3.5,4.8-3.5,7.9-5.4c2.2-1.3,5,0.7,4.4,3.2
			c-2.2,9.3,0.4,9.2-2.7,17.2c-1.2,2.5-2.8,6.7-6.4,5.5C494.2,683.7,490.4,679.4,491,674.8z"/>
		<path class="st2" d="M492.9,727.4c-0.8,0-1.9,0.1-2.7,0.2c-1,0.1-2.1-0.9-2.3-1.9c-1.7-7.1-6-14.8-4.6-21c1.6-7.2,9-3.4,13.9-4
			c1.1-0.1,2.1,0.7,2.2,1.8c0.2,2.9,0.5,7-1,10.7c-1,4.5-2.1,7.8-3.3,12.2C494.9,726.3,494,727.4,492.9,727.4z"/>
		<path class="st2" d="M494.8,689c1.2,1.2-2.7,3.4-4.3,4.5c-1.9,1.5-9.2,7.7-13.7-3.8c-0.2-0.4-3.8-7.7-4-8.1
			c-2.4-5.3,5.3-12.8,12.7-11c4.1,1,0,5,3,10"/>
		
			<linearGradient id="SVGID_1_" gradientUnits="userSpaceOnUse" x1="409.2141" y1="922.3325" x2="409.2141" y2="333.0675" gradientTransform="matrix(1 0 0 1 0 -272)">
			<stop  offset="0" style="stop-color:#FAB333"/>
			<stop  offset="0.1436" style="stop-color:#FAB631"/>
			<stop  offset="0.2573" style="stop-color:#FAC02A"/>
			<stop  offset="0.3607" style="stop-color:#FBD11F"/>
			<stop  offset="0.4575" style="stop-color:#FBE810"/>
			<stop  offset="0.5209" style="stop-color:#FCFC03"/>
		</linearGradient>
		<path class="st3" d="M241.4,248.3c-0.9,26.7-7.7,52.1,15.1,73.3c1.9,1.7-0.4,9.1-2.1,13.3c-9.6,22.6-18,46-30.6,66.8
			c-3.7,6.1-19.8,5.1-30.3,6.5c-38.9,5.2-56.9,34.6-45.4,73.2c0.4,1.3-8.5,6.1-13.5,8.2c-17.7,7.5-35.6,14.6-53.4,21.9
			c-12.1-45.7-18.7-92.3-15-139.4c4.9-62.5,24.2-120.1,62-171.3c38.9-52.7,88.3-90.6,149.2-114C254.7,138.3,243.4,191.8,241.4,248.3
			z M99.8,561c16.5,28.5,34,56.2,57.1,80.1c8.9,9.2,9.1,16.2,21-2.8c-1.5-1.8-0.5-0.8-2-2.5C151.3,608.9,128.9,583.2,99.8,561z
			 M716.7,246.4c-39.2-73-96.7-127.2-174.5-158.9C469.2,57.9,395,53.2,319,73.2c-3.3,0.9-6.3,2.7-9.5,4.1c3.7,2.5,8,4.3,11,7.5
			c28.4,30.3,29.5,72.2,45.8,107.6c7.7,16.8,4.4,45.4,37.1,40.8c5-0.7,10.6,3.1,16,4.7c11.1,3.2,20.5,2.1,26-9.8
			c13.3-28.5,26.6-57.1,40.3-85.4c6.5-13.4,15.2-27,32.6-21.4c14.1,4.6,9.5,19.5,11,30.8c5,38-13.1,74.4-7.3,112.3
			c2.3,14.9-2.3,27.5-8.9,40.3c-3.4,6.7-5.4,15.7,7.2,14.6c20-1.7,17.6,12,20.7,24.9c2.5,10.6-14.9,22.9,4.9,32.1
			c22.3,10.4,42.4,25.2,64.3,36.5c9.7,5,16.1,9.2,14,21.3c-2.1,12.5-4.3,24-19.6,26.6c-4.1,0.7-5.2,3.7-5.4,7.7
			c-0.2,5,3.7,3.9,5.7,3.9c9.5-0.3,19.4-0.5,28.4-0.3c36.8,0.8,73.1,7.5,109,16.1C761,404.7,757.8,322.9,716.7,246.4z M696.9,524.6
			c-21.7-6.7-43.6-12.5-65.3-19.2c-2.9-0.9-4.6-5.4-6.9-8.2c0,0,0.2-0.1,0.2-0.2c-3.7-1-7.5-1.6-11.1-2.9
			c-10.5-3.8-25.1-6.1-30.9-0.3c-8,8-16,13.5-26,17.4c-3.4,1.3-6.8,2.9-10.2,4.4l0,0c2.9,1.9,6,3.5,8.7,5.7
			c21.2,17.1,42.1,34.5,63.5,51.4c3.6,2.8,6.9,4.9,5.8,9.7c-1.1,4.9-5.5,5.2-9.6,6.2c-7,1.6-13.9,3.8-20.8,5.7l0,0
			c6.2,2.3,13,3.7,18.6,7c10.3,6.2,28.5-2.7,31.4,18.1c1.3,9.4-3.5,20.4,5.2,28.5l0,0c34.7-28.3,57.3-65,73.5-106.1
			c0.7-1.8,1.5-3.6,2.3-5.5C715.9,532.2,706.6,527.7,696.9,524.6z"/>
	</g>
	
		<linearGradient id="SVGID_00000033353663533856868820000017011300805279119038_" gradientUnits="userSpaceOnUse" x1="81.9576" y1="252.6673" x2="787.238" y2="581.5449" gradientTransform="matrix(1 0 0 -1 0 808)">
		<stop  offset="0.123" style="stop-color:#EF3FE3"/>
		<stop  offset="0.1563" style="stop-color:#F57CE1"/>
		<stop  offset="0.1869" style="stop-color:#FBB1E0"/>
		<stop  offset="0.2579" style="stop-color:#FB4CE0"/>
		<stop  offset="0.3084" style="stop-color:#EF42E3"/>
		<stop  offset="0.4614" style="stop-color:#FB38E0"/>
		<stop  offset="0.4794" style="stop-color:#FB53E0"/>
		<stop  offset="0.499" style="stop-color:#FB55E0"/>
		<stop  offset="0.5095" style="stop-color:#FB5DE0"/>
		<stop  offset="0.5178" style="stop-color:#FB6BE0"/>
		<stop  offset="0.525" style="stop-color:#FB7EE0"/>
		<stop  offset="0.5313" style="stop-color:#FB97E0"/>
		<stop  offset="0.537" style="stop-color:#FBB4E0"/>
		<stop  offset="0.5639" style="stop-color:#FBB4E0"/>
		<stop  offset="0.5656" style="stop-color:#FBABE0"/>
		<stop  offset="0.571" style="stop-color:#FB95E0"/>
		<stop  offset="0.5769" style="stop-color:#FB85E0"/>
		<stop  offset="0.5835" style="stop-color:#FB7BE0"/>
		<stop  offset="0.5923" style="stop-color:#FB78E0"/>
		<stop  offset="0.6456" style="stop-color:#FB82E0"/>
		<stop  offset="0.7334" style="stop-color:#FB3CE0"/>
		<stop  offset="0.7968" style="stop-color:#FB11E0"/>
		<stop  offset="0.8289" style="stop-color:#FB00E0"/>
		<stop  offset="0.8504" style="stop-color:#FB48E0"/>
		<stop  offset="0.8507" style="stop-color:#FB4DE0"/>
		<stop  offset="0.8525" style="stop-color:#FB68E0"/>
		<stop  offset="0.8545" style="stop-color:#FB7EE0"/>
		<stop  offset="0.8569" style="stop-color:#FB8FE0"/>
		<stop  offset="0.8598" style="stop-color:#FB9AE0"/>
		<stop  offset="0.864" style="stop-color:#FBA1E0"/>
		<stop  offset="0.8755" style="stop-color:#FBA3E0"/>
		<stop  offset="0.8888" style="stop-color:#FBB0E0"/>
		<stop  offset="0.8897" style="stop-color:#FBAEE0"/>
		<stop  offset="0.9077" style="stop-color:#F786E1"/>
		<stop  offset="0.9255" style="stop-color:#F367E2"/>
		<stop  offset="0.9427" style="stop-color:#F151E3"/>
		<stop  offset="0.9592" style="stop-color:#EF44E3"/>
		<stop  offset="0.974" style="stop-color:#EF3FE3"/>
		<stop  offset="0.9796" style="stop-color:#F328E2"/>
		<stop  offset="0.9868" style="stop-color:#F813E1"/>
		<stop  offset="0.9937" style="stop-color:#FA05E0"/>
		<stop  offset="1" style="stop-color:#FB01E0"/>
	</linearGradient>
	<path style="fill:url(#SVGID_00000033353663533856868820000017011300805279119038_);" d="M453.9,289.6c0.2,0.9-0.4,1.8-1.2,2.2
		c-2.7,1.5,8.2,18.7-7.5,5.2c-3.4-2.9-8.6-3.1-11.4,1.6c-3.1,5.2,3.3,4.4,5,6.5c1.3,1.6,2.9,3,4.5,4.4c1.3,1.1,0.7,3.2-1,3.5
		c-2.2,0.4-4.4,0.7-6.5,0.7c-13.4,0-26.3,2.1-31,16.6c-8.3,26-31.8,23.4-51.2,29.6c-40.3,12.8-80.2,26.8-120.2,40.3
		c-0.1,0-0.2,0.1-0.3,0.1c-1.6,0.5-3.2-1.2-2.5-2.7l0,0c8.7-18.5,15.9-38,26.7-55.1c11.5-18.2-2.9-27.3-8.9-40.4
		c-13.2-28.3,2.5-56.9,1.1-85.4c-2.1-42.2,14.3-80,29.4-118.1c4.5-11.3,14.7-13.1,25.1-13.6c10.1-0.4,18.5,4.9,21.9,13.6
		c10.4,26.4,22,52.8,28.1,80.3c6.1,27.8-2.5,54.1-20.6,77.2c-8.4,10.8-20.4,24.9,4.5,32.4c0.7,0.2,1.1,1.5,1.6,2.2
		c0,0-0.8,0.8-1,0.7c-9.5-6.1-16.1,7.8-21.8,5.2c-11.2-5.1-20.8-14.1-16.5-29.4c2.8-9.8-0.9-17.6-5.9-26.1c-3-5.1-2.6-12-3.1-18.6
		c-0.1-1.5,1.3-2.6,2.7-2.1c1.8,0.6,3.5,1.2,5.3,1.7c0.5,0.1,2-1.5,1.9-1.8c-1.4-3-3.1-5.9-4.5-8.9c-0.9-1.9-1.7-3.8-2.5-5.8
		c-0.5-1.3,0.4-2.7,1.7-2.8c1.5-0.1,3-0.2,4.5-0.3c22.2-1.2,17.1-16.4,13.2-28.6c-6.7-21-6.6-42.5-8.4-64c0-0.4-0.1-0.8-0.2-1.2
		c-0.3-1.5-2.1-2.2-3.2-1.2c-0.4,0.3-0.7,0.6-0.9,1c-12.2,23.4-32.3,45.2-32.5,71.4c-0.2,35.6-14.4,69.3-10.5,104.9
		c1.7,15.8,19.5,24,17.8,42.6c-1.4,15.2-2.9,30.2-6.7,45c-0.4,1.4-0.4,2.9-0.4,4.4c0,1.2,1,2.1,2.2,2c1.3-0.1,2.6-0.2,3.9-0.5
		c22.8-4.5,27.7-23.5,37-41.1c12.6-23.8,30.3-46,47-66.3c9.8-11.9,23.6-44.7,52.8-29.7C430.8,251.3,449.4,263.8,453.9,289.6z
		 M147.5,466.5c5.5-15.5,10.6-30,15.9-44.5c0.1-0.4,2.1-0.7,2.4-0.3c34.8,44.1,83.4,69.4,131.9,93.8
		c79.6,40,135.1,102.7,175.5,180.3c0.7,1.4,0.7,3.1,1.1,4.7c-1-1-2-2.1-3-3.1C424.9,652.9,369.9,627,307.7,610
		c-33.7-9.2-59.8-39.6-87.8-62.5c-24.5-20.1-47.2-41.8-65.8-67.5C151.3,475.9,149.7,471,147.5,466.5z M182.1,642.8
		c26.5,37.7,45-0.9,63-9.7c21-10.2,26.8-8,34.9,12.6c6.9,17.4,20.2,32.3,30.3,48.5c11.6,18.5,18.2,7.9,25.7-3.7
		c5.2-8,12.1-14.8,17.8-22.5c5.3-7.1,10.9-2.4,14.3,0.6c29.5,25.8,60.1,50.5,83.4,82.6c0.6,0.9,1.2,1.9,1.8,2.8
		c-1.2,0.3-2.4,0.8-3.6,0.9c-98,8.8-187.6-13.5-266.4-73.3c-45.7-34.7-80.1-79-103.7-131.4c-1.4-3.1-1.9-6.5-2.8-9.8
		c3.2,1.8,6.8,3.2,9.4,5.7c4.8,4.6,9.1,9.9,13.5,14.9c16.5,28.5,34,56.2,57.1,80.1C165.8,650.3,172.1,663.5,182.1,642.8z
		 M767.5,406.2c-2.1-150.6-73.3-258.5-207.4-323.7c-132-64.2-299.2-36-403.7,67C55.6,248.9,31,369.3,64.8,504.2
		c2.7,10.7,7.3,12.8,16.3,7.4c-12.1-45.7-18.7-92.3-15-139.4c4.9-62.5,24.2-120.1,62-171.3c38.9-52.7,88.3-90.6,149.2-114
		c10.7-3.2,21.5-6.4,32.2-9.6c3.1-1.4,6.2-3.2,9.5-4.1c76-19.9,150.2-15.3,223.2,14.4c77.8,31.7,135.3,85.9,174.5,158.9
		c41.1,76.5,44.3,158.2,25.8,241.7c5.2-0.5,12.3,9.1,15.3-1.1C765.6,460.8,767.9,433.5,767.5,406.2z M481.8,350.1
		c3,27.3-11.1,36.9-25.5,46.7c-3.2,2.2-5.3,6-7.8,9.1c-5.5,7.1-8,14.7-21.8,8.7c-8.1-3.5-16.9,12.1-22.2,20.8
		c-4.6,7.5-14.8,15.4-7.8,27c0.2,0.3-0.5,1.4-1,1.9c-1.7,1.9-14.1-10.5-6.1,5.6c8.3,16.6-9.5,13.9-17.6,18.3
		c-24.1,13.2-45,12.3-62.3-11.7c-7.3-10.1,6.4-16.6,3.3-25.5c-7.8-22.6-31.5-19.9-47.7-29c-4.4-2.5-3.7-2.2-2.6-6.1
		c7-24.5,28.1-28.5,48.2-34.1c22.7-6.2,45.6-12.2,68.4-18.1c1.4-0.4,3,0,4.6,0c-1.1,0.9-2.2,1.9-3.3,2.8
		c-17.4,15.8-25.3,39.9-45.7,52.8c-7.5,4.8-15.2,11.1-25.5,7.6c-0.7-0.2-2.2,0.6-2.7,1.4c-0.5,0.7-0.4,2.8-0.1,2.9
		c1.6,0.6,3.3,1,5,1c36.6-0.3,48.2-30.9,66.5-53.9c6.3-8,11.7-28,28-5.5c18.8,26.1,44.4,22,59.2-6.7c2.4-4.7,5.5-9.1,8.7-13.3
		c1.9-2.5,4.6-4.5,6.9-6.7C481.7,349.8,482.8,353.3,481.8,350.1z M298.1,404.3c0.7,3-2.3,11.2,5.1,11.1c11.7-0.2,17.9-8.8,19.1-19.9
		c0.5-4.4-0.8-10.4-8-10C303.5,386,297.2,391,298.1,404.3z M649.4,647.7c0.1,0,0.1-0.1,0.2-0.1c34.7-28.3,57.2-65,73.4-106.1
		c0.6-1.5,1.2-3,1.9-4.5c0.3-0.6,0.9-1.1,1.5-1.1c11.7-0.8,15.7,2.6,9.7,15.6c-34.4,74.4-88.7,129.4-161.3,166.6
		c-16.5,8.5-33.8,15.5-50.8,23.1l0,0c-1.2,0.5-2.6-0.6-2.5-1.9c0.1-0.5,0.2-1.1,0.4-1.6c19.4-46,38.3-92.3,59.1-137.7
		c2.8-6.2,13.5,1.8,20.5,3c9.1,1.5,18,4.5,27,6.9c20.9,5.7,7.2,23.9,12.7,35.1c0.6,1.3,1,2.7,1.2,4.1c0.3,1.2,1.7,1.8,2.8,1.1
		C646.7,649.5,648,648.6,649.4,647.7z M759.6,534.8c-23.6,2.3-43.5-10.8-65.3-16.1c-0.6-0.1-1.2-4.1-0.4-5c2.7-3.1,0.3-11.1,8.2-9.4
		c20.7,4.6,40.6,12.8,62.3,12.5c38.7-0.5,47.3-13.6,31-47.9c-8.1-17.1-10.7-35.5-13.3-53.9c-0.7-5,4.9-6.5,9-7
		c15.6-1.9,53.1-3.6,68.8-4.5c4.5,0,10.7-2.3,11.5,4.4C880.1,494.1,842.1,535.1,759.6,534.8z M523.9,164.4
		c0.5,23.5-1.4,46.8-8.4,69.3c-3.6,11.5-1.6,22.2,1.3,32.7c3.4,12-6,20.8-6.1,31.7c0,0.2-0.6,0.5-0.9,0.7c-0.4-1-1.2-2-1.2-3
		c0.1-13.5-4.2-27.4-7.7-39c-5.1-17.3,0.9-33.8-3.8-50c-0.3-1.1-0.1-2.3,0.2-3.5c0.3-1.2,1.9-1.4,2.5-0.4c0.7,1.2,1.3,2.4,1.3,3.6
		c1.9,11.5,1.4,18,1.6,30.3c0,0.7,0,5.5,0.7,6c1.3,1,1.7,0.5,1.9-1.1l1.3-9.4c3.5-29.4,10.4-44.9,8.6-74.9c-0.2-2.4-3.1-6.9-3.9-6.7
		c-3.1,0.8-7.9,2.5-8.5,4.7c-7.8,31.5-28.2,60.3-20.8,95.2c1.1,5.2-3.8,1.6-5,1.1c-9.7-4.1-19.3-8.6-28.9-13.1
		c-0.6-0.3-1.3-1.6-1.1-1.9c20.6-29.6,29.3-64.9,46.3-96.3c4.5-8.3,10.8-18.7,21.9-15.2c10.3,3.3,7.8,15.2,8.7,24
		C524.3,154.4,523.9,159.5,523.9,164.4z M578.1,581.7c0.9,0.8,0.9,2.3-0.1,3.1c-6.2,4.8-12,9.2-17.6,13.8
		c-16,13.2-31.9,26.5-47.8,39.7c-0.1,0.1-0.2,0.2-0.3,0.2c-1.5,1.1-3.5-0.2-3.2-1.9l0,0c0-0.1,0-0.2,0.1-0.3
		c10.5-43.7,19.9-66.1,20-93.6c1.4-5.7,7,0.8,9.4,2.9C551.8,557.3,564.8,569.4,578.1,581.7z M496.9,312.9c-18.3-1.2-10.2,1.8-23.4,3
		c-1.3,0.1-2.6,0.4-3.9,0.8c-3.6,1.2-13.4,3-13.6,2.7c-1.8-1.8-3.3-3.8-4.5-6c-0.2-0.4,1.1-2.2,2-2.6c9.8-4.4,11.6-32.7,3.3-40.3
		c-8.1-7.4-15.1-16-22.6-24.2c-0.3-0.4-0.3-1.1-0.4-1.6c1.5-0.2,2.9-0.7,4.4-0.7c21.5,0.3,34.5,13.8,46.4,29.5
		c2.1,2.9,4.9,12.9,9.9,3.1c0.4-0.7,1.3-1,2-0.7c1.1,0.5,2.1,1,2.3,1.7c1.9,8.8,3.5,17.6,5.1,25.9c0.2,1.2,0.2,2.3,0,3.5
		c-0.4,2.3,0.1,2.8-0.2,4.8c-0.3,1.5-0.5,2.4-3,1.6 M264.8,398.5c-0.7,0.9,0.1-0.4,0,0.1c-5.7,18.8-24.2,36.5-4.8,57.5
		c0.1,0.1-0.8,1.5-1.1,1.5c-12.8-2.4-13.4,29-34.1,10.5c-12.1-10.8-6.1-17.9-4-28.1C225.8,416,234.9,397,264.8,398.5z M694.8,490.8
		c-2.5,8.6-4.5,15.2-6.3,21.5c-0.7,2.3-3.1,3.6-5.4,2.9c-15.8-4.9-31.7-9.7-47.5-14.6c-2.4-0.7-3.7-3.4-2.8-5.7c3-7.5,6-17,8.7-16.9
		c16.7,0.7,34.2,1,50.8,7.6C694.4,486.4,695.5,488.7,694.8,490.8z M492.5,730.1c0.9,0,1.5,0.5,1.1,1.3c-3,6-6,11.9-9,17.8
		c-0.1,0.2-1.7-0.1-1.7-0.2c-1.2-29.8-25.6-43.6-42.9-62.3c-1-1.1-1.4-2.8-2.1-4.2h-0.1c20.9,13.3,44.3,24.4,46.8,53.8
		c0.3,3.2,1.9,2.5,3-1.9c0.3-1.2,0.4-1.7,0.6-2.9c0.1-0.5,0.6-1.1,1.1-1.2C490.4,730.2,491.5,730.2,492.5,730.1z M620.3,486.8
		c-7.1-1-14.4-2.1-21.8-3.2c-2.6-0.4-3.9-3.3-2.4-5.5c1.3-2,2.5-3.6,3.2-3.4c10.1,3.1,24-4.7,30.2,8c2.5,5.1-3.9,2.5-7.3,3.8
		C621.6,486.8,621,486.9,620.3,486.8z M304.3,403.9c-0.1-0.3-0.2-0.5-0.2-0.8c-0.1-7,1.2-11.5,7.9-11.4c2.5-0.2,2.7,2.7,2.8,3.7
		c0.8,7.2-4.6,7.9-7.6,9.3c-1,0.5-2.1,0.8-2.6-0.2L304.3,403.9z M606,434.7c0.5-1.6,1.6-3.1,2.9-4.1c1.6-1.2,2.1-3.4,1.4-5.3
		c-0.8-2-3.4-3.1-5.7-3.8c-18.6-5.6-25.7-2.5-35.2,3.4c-6.4,4-6.1,10.9-6,12.5c0.3,7.6,1.5,16.1,11.4,17.6
		c9.4,1.5,24.7,2.5,30.6-6.3c0.1-0.1,0.1-0.2,0.2-0.2c0.8-1.1,1.1-2.4,0.8-3.7c-0.1-0.3-0.1-0.5-0.2-0.5
		C603.1,443.2,604,438.7,606,434.7z M594.7,449.9c-8.7,4.6-14.7,3.9-20.9,0.4c-0.4-0.2-3.5-2.7-2.2-4.8c6-9.8-2.4-8.9,3.4-12.7
		c3.6-2.7,8.1-3,12.6-3c0.9,0,1.8,0.3,2.6,0.8c6.6,4.4,13.1,13.4,5,19.1C595,449.7,594.9,449.8,594.7,449.9z"/>
</g>
<g id="Layer_2_00000064342328960281980850000008221329754067612556_">
</g>
</svg>
